<mxfile host="app.diagrams.net" modified="2023-07-20T09:58:43.050Z" agent="Mozilla/5.0 (Macintosh; Intel Mac OS X 10.15; rv:109.0) Gecko/20100101 Firefox/115.0" version="21.6.3" etag="KnF-d5cUX-Z-YtH_5jr5" type="github">
  <diagram name="Page-1" id="RRea_OFtMP1Is3Hehgt_">
    <mxGraphModel>
      <root>
        <mxCell id="0" />
        <mxCell id="1" parent="0" />
      </root>
    </mxGraphModel>
  </diagram>
</mxfile>
